<?xml version="1.0" standalone="no"?>
<!DOCTYPE svg PUBLIC "-//W3C//DTD SVG 20010904//EN"
 "http://www.w3.org/TR/2001/REC-SVG-20010904/DTD/svg10.dtd">
<svg version="1.0" xmlns="http://www.w3.org/2000/svg"
 width="1080.000000pt" height="1080.000000pt" viewBox="0 0 1080.000000 1080.000000"
 preserveAspectRatio="xMidYMid meet">
<metadata>
Created by potrace 1.14, written by Peter Selinger 2001-2017
</metadata>
<g transform="translate(0.000000,1080.000000) scale(0.100000,-0.100000)"
fill="#000000" stroke="none">
<path d="M5128 10795 c-2 -1 -46 -5 -98 -9 -185 -12 -397 -37 -535 -62 -44 -8
-96 -17 -115 -20 -28 -5 -237 -51 -310 -69 -236 -58 -595 -180 -795 -270 -69
-31 -108 -48 -115 -49 -3 -1 -62 -29 -131 -63 -400 -197 -809 -465 -1124 -738
-38 -33 -83 -71 -100 -85 -16 -14 -114 -108 -216 -210 -168 -168 -231 -236
-354 -384 -22 -27 -45 -54 -50 -60 -37 -40 -212 -282 -299 -414 -386 -584
-667 -1276 -791 -1952 -3 -14 -7 -36 -10 -50 -3 -14 -8 -45 -11 -69 -3 -25 -7
-48 -9 -51 -2 -3 -6 -33 -10 -65 -3 -33 -8 -69 -10 -80 -2 -11 -7 -49 -10 -85
-4 -36 -8 -76 -11 -90 -26 -159 -25 -823 1 -1037 2 -16 6 -57 9 -93 4 -36 8
-75 10 -86 2 -12 8 -45 11 -75 11 -82 13 -91 20 -129 3 -19 12 -69 20 -110 29
-159 78 -365 116 -490 11 -36 32 -103 46 -150 95 -308 270 -707 446 -1015 129
-226 340 -539 469 -695 16 -19 32 -39 36 -45 94 -121 429 -474 587 -616 488
-439 1088 -803 1710 -1036 115 -43 338 -118 380 -128 11 -2 36 -9 55 -14 122
-34 271 -71 305 -77 22 -3 42 -7 45 -9 3 -2 46 -11 95 -19 50 -9 100 -18 111
-20 47 -10 194 -30 299 -42 28 -3 66 -7 85 -9 102 -13 293 -20 530 -20 335 0
488 11 790 55 196 29 571 108 660 139 14 5 72 24 130 41 405 122 901 344 1220
548 331 211 572 390 790 587 87 78 379 373 447 450 273 313 501 637 692 985
51 91 201 396 201 406 0 3 11 29 24 57 13 29 27 63 31 77 4 14 11 30 15 35 25
32 196 549 216 648 2 10 6 27 9 37 3 10 8 27 10 37 2 10 13 61 25 113 22 99
47 230 55 290 3 19 7 46 10 60 3 14 7 43 11 65 3 22 7 51 9 65 2 14 7 52 10
85 4 33 8 76 11 95 25 219 25 881 -1 1041 -2 13 -6 51 -10 84 -11 113 -16 150
-25 200 -5 28 -12 70 -15 95 -16 115 -65 339 -115 520 -175 644 -468 1246
-868 1790 -47 63 -88 117 -92 120 -3 3 -13 14 -21 26 -103 149 -542 606 -726
754 -10 8 -43 36 -73 61 -254 213 -634 463 -950 625 -301 155 -525 248 -830
345 -166 53 -184 59 -206 63 -10 3 -53 14 -95 25 -94 26 -164 42 -389 86 -25
5 -89 15 -125 20 -11 2 -69 10 -130 18 -60 9 -148 19 -195 22 -47 4 -96 9
-110 12 -27 5 -666 13 -672 8z"/>
</g>
</svg>
